<?xml version="1.0" standalone="no"?>
<!DOCTYPE svg PUBLIC "-//W3C//DTD SVG 20010904//EN"
 "http://www.w3.org/TR/2001/REC-SVG-20010904/DTD/svg10.dtd">
<svg version="1.0" xmlns="http://www.w3.org/2000/svg"
 width="1000.000000pt" height="1000.000000pt" viewBox="0 0 1000.000000 1000.000000"
 preserveAspectRatio="xMidYMid meet">
<metadata>
Created by potrace 1.15, written by Peter Selinger 2001-2017
</metadata>
<g transform="translate(0.000000,1000.000000) scale(0.100000,-0.100000)"
fill="#000000" stroke="none">
<path d="M0 5000 l0 -5000 5000 0 5000 0 0 5000 0 5000 -5000 0 -5000 0 0
-5000z m1510 1484 c167 -80 325 -223 565 -509 78 -93 344 -398 591 -677 247
-278 487 -552 534 -609 155 -188 312 -296 446 -307 l64 -5 0 1077 0 1076 435
0 435 0 0 -1526 0 -1525 -487 3 c-458 4 -494 5 -586 26 -249 56 -453 154 -615
298 -29 26 -270 302 -535 613 -265 311 -606 713 -758 892 -329 386 -343 400
-438 415 l-41 7 0 -1127 0 -1126 -395 0 -395 0 0 1525 0 1526 548 -3 547 -3
85 -41z m7120 -315 l0 -360 -802 -822 c-442 -452 -947 -969 -1123 -1149 l-320
-328 -672 0 c-370 0 -673 2 -673 5 0 2 474 462 1053 1022 578 559 1111 1075
1182 1145 l130 128 -1297 0 -1298 0 0 360 0 360 1910 0 1910 0 0 -361z"/>
</g>
</svg>
